<mxfile host="app.diagrams.net" modified="2023-10-29T19:25:11.129Z" agent="Mozilla/5.0 (X11; Linux x86_64) AppleWebKit/537.36 (KHTML, like Gecko) Chrome/118.0.0.0 Safari/537.36" version="22.0.8" etag="3h6Yzck0PGlUJlmuS_sH" type="github">
  <diagram name="Page-1" id="htEqs-REQuab4AiIYlHN">
    <mxGraphModel>
      <root>
        <mxCell id="0" />
        <mxCell id="1" parent="0" />
      </root>
    </mxGraphModel>
  </diagram>
</mxfile>
